<svg data-v-fde0c5aa="" xmlns="http://www.w3.org/2000/svg" viewBox="0 0 300 300" class="font"><!----><defs data-v-fde0c5aa=""><!----></defs><rect data-v-fde0c5aa="" fill="transparent" x="0" y="0" width="300px" height="300px" class="logo-background-square"></rect><defs data-v-fde0c5aa=""><linearGradient data-v-fde0c5aa="" gradientTransform="rotate(25)" id="1c280b3e-451c-4984-af6e-ee319c0ddd37" x1="0%" y1="0%" x2="100%" y2="0%"><stop data-v-fde0c5aa="" offset="0%" stop-color="#7D7D7D" stop-opacity="1"></stop><stop data-v-fde0c5aa="" offset="100%" stop-color="#352F90" stop-opacity="1"></stop></linearGradient></defs><g data-v-fde0c5aa="" id="cb46f305-059f-42bf-8ec5-f60aed6a43c0" fill="url(#1c280b3e-451c-4984-af6e-ee319c0ddd37)" transform="matrix(5.408104419708252,0,0,5.408104419708252,39.8309967351642,89.12713654695601)"><path d="M3.80 14.40L0.03 14.40L0.12 13.52L1.16 13.21L1.16 7.25L0.05 6.71L0.21 5.87L2.53 5.70L2.81 5.97L2.81 13.21L3.89 13.53L3.80 14.40ZM7.53 10.23L7.53 10.23L7.53 10.23Q7.53 9.12 6.77 9.12L6.77 9.12L6.77 9.12Q6.37 9.12 6.10 9.59L6.10 9.59L6.10 9.59Q5.83 10.07 5.81 10.88L5.81 10.88L7.49 10.72L7.49 10.72Q7.53 10.55 7.53 10.23ZM4.10 11.46L4.10 11.46L4.10 11.46Q4.10 10.72 4.37 10.07L4.37 10.07L4.37 10.07Q4.64 9.42 5.09 9.00L5.09 9.00L5.09 9.00Q6.02 8.08 7.19 8.08L7.19 8.08L7.19 8.08Q8.13 8.08 8.69 8.72L8.69 8.72L8.69 8.72Q9.25 9.35 9.25 10.43L9.25 10.43L9.25 10.43Q9.25 10.94 9.12 11.48L9.12 11.48L5.84 11.55L5.84 11.55Q5.88 12.33 6.35 12.85L6.35 12.85L6.35 12.85Q6.83 13.37 7.70 13.37L7.70 13.37L7.70 13.37Q8.57 13.37 9.27 12.99L9.27 12.99L9.41 13.62L9.41 13.62Q8.99 14.12 8.29 14.36L8.29 14.36L8.29 14.36Q7.59 14.60 6.85 14.60L6.85 14.60L6.85 14.60Q5.66 14.60 4.88 13.78L4.88 13.78L4.88 13.78Q4.10 12.96 4.10 11.46ZM12.20 12.10L12.20 12.10Q12.20 12.69 12.42 12.95L12.42 12.95L12.42 12.95Q12.65 13.20 13.13 13.20L13.13 13.20L13.13 13.20Q13.60 13.20 14.08 12.91L14.08 12.91L14.25 13.55L14.25 13.55Q13.95 13.98 13.42 14.27L13.42 14.27L13.42 14.27Q12.90 14.55 12.10 14.55L12.10 14.55L12.10 14.55Q11.31 14.55 10.90 14.10L10.90 14.10L10.90 14.10Q10.49 13.64 10.50 12.50L10.50 12.50L10.52 9.45L9.75 9.45L9.75 8.76L9.75 8.76Q10.72 8.10 11.49 7L11.49 7L12.23 7L12.23 8.50L14.13 8.50L14.06 9.47L12.21 9.47L12.20 12.10ZM20.07 7.48L20.07 7.48L20.07 7.48Q19.48 7.48 19.16 7.18L19.16 7.18L19.16 7.18Q18.85 6.89 18.85 6.47L18.85 6.47L18.85 6.47Q18.85 6.05 19.19 5.77L19.19 5.77L19.19 5.77Q19.53 5.50 20.09 5.50L20.09 5.50L20.09 5.50Q20.65 5.50 20.98 5.78L20.98 5.78L20.98 5.78Q21.31 6.06 21.31 6.47L21.31 6.47L21.31 6.47Q21.31 6.89 20.99 7.18L20.99 7.18L20.99 7.18Q20.66 7.48 20.07 7.48ZM18.17 17.01L17.73 16.13L18.05 15.89L18.05 15.89Q18.45 15.58 18.62 15.35L18.62 15.35L18.62 15.35Q18.80 15.12 18.94 14.88L18.94 14.88L18.94 14.88Q19.09 14.64 19.17 14.38L19.17 14.38L19.17 14.38Q19.36 13.79 19.36 13.06L19.36 13.06L19.36 9.83L18.35 9.26L18.53 8.36L20.73 8.21L21.01 8.48L21.01 13.37L21.01 13.37Q21.01 15.47 19.21 16.53L19.21 16.53L19.21 16.53Q18.89 16.71 18.50 16.89L18.50 16.89L18.17 17.01ZM24.01 14.64L24.01 14.64L24.01 14.64Q23.04 14.64 22.39 14.26L22.39 14.26L22.39 14.26Q21.75 13.89 21.75 13.41L21.75 13.41L21.75 13.41Q21.75 12.92 22.05 12.65L22.05 12.65L22.05 12.65Q22.34 12.39 22.86 12.35L22.86 12.35L22.86 12.35Q23.06 13.04 23.39 13.40L23.39 13.40L23.39 13.40Q23.73 13.75 24.13 13.75L24.13 13.75L24.13 13.75Q24.96 13.75 24.96 13.19L24.96 13.19L24.96 13.19Q24.96 12.78 24.18 12.41L24.18 12.41L24.18 12.41Q23.38 12.03 22.73 11.55L22.73 11.55L22.73 11.55Q22.39 11.31 22.17 10.93L22.17 10.93L22.17 10.93Q21.95 10.55 21.95 10.17L21.95 10.17L21.95 10.17Q21.95 9.78 22.08 9.45L22.08 9.45L22.08 9.45Q22.22 9.12 22.48 8.80L22.48 8.80L22.48 8.80Q22.75 8.48 23.23 8.28L23.23 8.28L23.23 8.28Q23.71 8.08 24.46 8.08L24.46 8.08L24.46 8.08Q25.21 8.08 25.75 8.38L25.75 8.38L25.75 8.38Q26.30 8.68 26.30 9.18L26.30 9.18L26.30 9.18Q26.30 9.67 25.98 9.96L25.98 9.96L25.98 9.96Q25.66 10.25 25.17 10.29L25.17 10.29L25.03 9.86L25.03 9.86Q24.78 8.87 24.00 8.87L24.00 8.87L24.00 8.87Q23.69 8.87 23.51 9.06L23.51 9.06L23.51 9.06Q23.33 9.24 23.33 9.50L23.33 9.50L23.33 9.50Q23.33 9.76 23.56 9.98L23.56 9.98L23.56 9.98Q23.80 10.21 24.14 10.38L24.14 10.38L24.14 10.38Q24.49 10.55 24.90 10.78L24.90 10.78L24.90 10.78Q25.30 11.01 25.65 11.25L25.65 11.25L25.65 11.25Q26.00 11.49 26.23 11.87L26.23 11.87L26.23 11.87Q26.46 12.26 26.46 12.71L26.46 12.71L26.46 12.71Q26.46 13.58 25.73 14.11L25.73 14.11L25.73 14.11Q24.99 14.64 24.01 14.64ZM29.71 9.13L29.71 9.13L29.71 9.13Q28.55 9.13 28.55 10.90L28.55 10.90L28.55 10.90Q28.55 12.56 29.18 13.22L29.18 13.22L29.18 13.22Q29.52 13.58 30.06 13.58L30.06 13.58L30.06 13.58Q30.60 13.58 30.88 13.15L30.88 13.15L30.88 13.15Q31.15 12.71 31.15 12.12L31.15 12.12L31.15 12.12Q31.15 11.53 31.11 11.16L31.11 11.16L31.11 11.16Q31.08 10.78 30.98 10.40L30.98 10.40L30.98 10.40Q30.88 10.02 30.72 9.75L30.72 9.75L30.72 9.75Q30.37 9.13 29.71 9.13ZM26.98 12.58L26.98 12.58L26.98 12.58Q26.80 12.02 26.80 11.31L26.80 11.31L26.80 11.31Q26.80 10.60 27.08 9.96L27.08 9.96L27.08 9.96Q27.36 9.32 27.82 8.91L27.82 8.91L27.82 8.91Q28.79 8.06 30.08 8.06L30.08 8.06L30.08 8.06Q31.38 8.06 32.15 8.88L32.15 8.88L32.15 8.88Q32.92 9.71 32.92 11.21L32.92 11.21L32.92 11.21Q32.92 12.72 32.05 13.65L32.05 13.65L32.05 13.65Q31.19 14.58 29.83 14.58L29.83 14.58L29.83 14.58Q27.59 14.58 26.98 12.58ZM36.83 14.40L33.28 14.40L33.38 13.61L34.38 13.22L34.38 9.75L33.37 9.29L33.50 8.46L35.90 8.22L36.08 8.42L35.94 9.21L36.03 9.23L36.03 9.23Q37.02 8.15 38.04 8.15L38.04 8.15L38.04 8.15Q38.83 8.15 39.27 8.64L39.27 8.64L39.27 8.64Q39.71 9.13 39.71 10.10L39.71 10.10L39.71 13.22L40.71 13.56L40.60 14.40L37.57 14.40L37.60 13.61L38.08 13.22L38.08 10.96L38.08 10.96Q38.08 9.73 37.15 9.73L37.15 9.73L37.15 9.73Q36.51 9.73 36.05 10.20L36.05 10.20L36.05 13.22L36.98 13.56L36.83 14.40Z"></path></g><!----><!----></svg>